<svg xmlns="http://www.w3.org/2000/svg" width="60" height="60" viewBox="0 0 576 433" version="1.1"><path d="M 261.432 67.413 C 259.269 68.656, 257.634 70.259, 257.797 70.977 C 257.960 71.694, 263.080 81.047, 269.174 91.762 L 280.255 111.243 278.730 114.371 C 277.891 116.092, 259.848 148.100, 238.635 185.500 L 200.064 253.500 285.693 253.756 C 332.789 253.896, 371.507 253.827, 371.732 253.601 C 371.958 253.376, 354.114 221.393, 332.080 182.529 L 292.017 111.867 293.659 108.683 C 294.561 106.933, 299.732 97.714, 305.150 88.197 C 310.567 78.681, 314.997 70.581, 314.992 70.197 C 314.988 69.814, 313.210 68.487, 311.041 67.248 L 307.098 64.997 303.743 70.748 C 301.898 73.912, 297.274 81.976, 293.466 88.668 C 289.659 95.361, 286.237 100.646, 285.861 100.414 C 285.486 100.182, 282.339 94.931, 278.868 88.746 C 275.397 82.561, 270.938 74.722, 268.960 71.326 L 265.363 65.153 261.432 67.413 M 284.239 125.191 C 282.083 128.765, 220.107 238.032, 218.128 241.750 L 216.930 244 240.465 244 L 264 244 264 220.500 L 264 197 286 197 L 308 197 308 220.500 L 308 244 331.913 244 L 355.826 244 334.591 206.750 C 322.911 186.262, 307.253 158.786, 299.795 145.691 L 286.236 121.883 284.239 125.191 M 274 225.500 L 274 244 286.500 244 L 299 244 299 225.500 L 299 207 286.500 207 L 274 207 274 225.500 M 100.121 289.093 C 89.566 290.913, 81.654 295.960, 77.730 303.376 C 74.737 309.033, 74.744 319.787, 77.744 325.568 C 81.792 333.369, 89.651 338.834, 105.720 345.022 C 109.896 346.630, 114.368 348.936, 115.657 350.147 C 122.450 356.529, 113.291 364.202, 102.677 361.021 C 98.428 359.748, 91.398 355.389, 89.070 352.584 C 88.347 351.713, 87.102 351, 86.304 351 C 84.582 351, 72.379 361.569, 71.522 363.804 C 70.667 366.031, 79.087 374.235, 86.021 377.931 C 94.392 382.392, 103.120 384.369, 111.152 383.622 C 130.561 381.819, 142.980 370.065, 142.981 353.500 C 142.981 347.589, 142.526 345.706, 140.053 341.394 C 136.304 334.859, 130.312 330.978, 115.148 325.263 C 102.484 320.491, 100 318.874, 100 315.402 C 100 308.261, 113.201 308.229, 121.644 315.348 C 123.374 316.807, 125.460 318, 126.280 318 C 128.046 318, 140 305.498, 140 303.651 C 140 302.224, 136.148 298.451, 131.289 295.120 C 123.804 289.989, 110.192 287.357, 100.121 289.093 M 189.112 290.581 C 167.420 296.414, 153 314.992, 153 337.105 C 153 355.696, 166.034 374.345, 183.678 380.998 C 210.512 391.116, 240.621 374.266, 246.634 345.765 C 253.648 312.519, 221.658 281.828, 189.112 290.581 M 282.253 291.750 C 281.114 292.762, 273.192 311.976, 263.461 337.329 C 249.682 373.229, 246.897 381.322, 248.069 382.064 C 249.647 383.062, 266.933 383.347, 269.364 382.414 C 270.204 382.092, 272.080 378.717, 273.533 374.914 L 276.175 368 292.139 368 L 308.104 368 309.134 370.954 C 309.700 372.579, 311.139 375.842, 312.332 378.204 L 314.500 382.500 325.486 382.500 C 334.945 382.500, 336.517 382.268, 336.794 380.834 C 337.216 378.642, 304.616 294.338, 302.399 291.889 C 299.987 289.224, 285.210 289.122, 282.253 291.750 M 348.035 291.934 C 346.467 294.865, 346.623 380.223, 348.200 381.800 C 349.457 383.057, 367.436 383.537, 370.418 382.393 C 371.766 381.876, 372 379.507, 372 366.393 L 372 351 382.962 351 C 391.554 351, 395.106 350.558, 399.387 348.956 C 410.345 344.857, 418.066 333.714, 418.241 321.747 C 418.382 312.167, 415.734 305.570, 409.090 298.951 C 400.992 290.883, 397.157 290, 370.220 290 C 350.333 290, 349.009 290.116, 348.035 291.934 M 431.250 291.131 C 430.288 292.108, 430 302.682, 430 337.093 C 430 376.925, 430.172 381.852, 431.582 382.393 C 432.452 382.727, 437.611 383, 443.047 383 C 451.794 383, 453.049 382.778, 453.965 381.066 C 454.537 379.997, 455 372.881, 455 365.169 L 455 351.206 467.250 350.814 C 478.146 350.466, 480.068 350.128, 484.638 347.751 C 491.026 344.430, 496.369 338.303, 498.992 331.292 C 504.364 316.933, 498.054 300.430, 484.546 293.518 L 478.649 290.500 455.575 290.181 C 437.913 289.938, 432.207 290.161, 431.250 291.131 M 371.998 320.750 L 371.995 330.500 380.483 330.177 C 388.208 329.883, 389.151 329.624, 390.985 327.292 C 392.976 324.760, 393.670 318.911, 392.379 315.545 C 391.269 312.654, 386.419 311, 379.050 311 L 372 311 371.998 320.750 M 455 320.500 L 455 330 462.418 330 C 471.376 330, 472.653 329.571, 474.537 325.928 C 476.892 321.374, 476.389 317.235, 473.077 313.923 C 470.361 311.207, 469.618 311, 462.577 311 L 455 311 455 320.500 M 192.030 314.113 C 183.459 317.533, 178.026 326.317, 178.010 336.782 C 177.988 350.810, 186.744 359.927, 200.290 359.978 C 224.569 360.070, 231.770 326.106, 209.843 314.920 C 205.728 312.820, 196.334 312.395, 192.030 314.113 M 291.817 322.550 C 290.553 324.742, 283.833 346.166, 284.272 346.605 C 284.536 346.869, 288.334 346.953, 292.713 346.792 L 300.674 346.500 296.520 334.050 C 294.235 327.202, 292.119 322.027, 291.817 322.550" stroke="none" fill="#fffcfc" fill-rule="evenodd"/><path d="" stroke="none" fill="#fcfcfc" fill-rule="evenodd"/></svg>